<?xml version="1.0" encoding="UTF-8" standalone="no"?>
<!-- Created with Inkscape (http://www.inkscape.org/) -->

<svg
   width="56.65519mm"
   height="66.973969mm"
   viewBox="0 0 56.65519 66.973969"
   version="1.1"
   id="svg1"
   xml:space="preserve"
   xmlns:inkscape="http://www.inkscape.org/namespaces/inkscape"
   xmlns:sodipodi="http://sodipodi.sourceforge.net/DTD/sodipodi-0.dtd"
   xmlns="http://www.w3.org/2000/svg"
   xmlns:svg="http://www.w3.org/2000/svg"><sodipodi:namedview
     id="namedview1"
     pagecolor="#ffffff"
     bordercolor="#000000"
     borderopacity="0.25"
     inkscape:showpageshadow="2"
     inkscape:pageopacity="0.0"
     inkscape:pagecheckerboard="0"
     inkscape:deskcolor="#d1d1d1"
     inkscape:document-units="mm" /><defs
     id="defs1" /><g
     inkscape:label="Livello 1"
     inkscape:groupmode="layer"
     id="layer1"
     transform="translate(-75.151354,-90.493116)"><g
       id="g559"
       transform="translate(-54.504166,-9.5250001)"><path
         style="fill:#027ab6;fill-opacity:1;stroke-width:0.270943"
         d="m 186.29673,116.6695 -14.39978,8.41655 v 17.24923 l 14.41224,-8.43291 c 0.007,-5.74422 -0.0124,-11.4886 -0.0124,-17.23287 z"
         id="path551-8"
         sodipodi:nodetypes="ccccc" /><path
         style="fill:#cb2023;fill-opacity:1;stroke-width:0.270497"
         d="m 144.11355,158.75176 v -17.10264 l 14.48812,8.36123 c 0.007,5.69543 -0.20116,11.28627 -0.20116,16.98173 z"
         id="path551-9"
         sodipodi:nodetypes="ccccc" /><g
         id="g558"
         transform="translate(0.23386084,-0.18708867)"><path
           d="m 158.31711,116.56085 c 0,5.64665 -0.0379,11.41228 -0.0446,17.05889 l 10e-4,5.2e-4 0.002,-0.001 14.22963,8.19589 c 9e-5,-5.69668 0.0194,-11.41395 0.0124,-17.11059 z m 14.18709,25.27494 5.2e-4,5.1e-4 c 8.95007,-5.4e-4 8.9488,-5.1e-4 -5.2e-4,-5.1e-4 z"
           style="opacity:1;fill:#094887;stroke-width:0.271016"
           id="path558"
           sodipodi:nodetypes="cccccccccc" /><path
           d="m 158.31565,116.50993 -14.46707,8.49019 0.0217,16.93592 0.0904,0.0522 0.4243,-0.0894 13.88752,-8.27805 c 0.007,-5.64696 0.0865,-11.26793 0.0446,-16.91477 z"
           style="fill:#fbea19;stroke-width:0.269501"
           id="path557"
           sodipodi:nodetypes="ccccccsc" /><path
           d="m 158.27509,133.61923 -14.4048,8.31681 14.23014,8.21552 14.4048,-8.33644 z"
           style="opacity:1;fill:#b61d20;stroke-width:0.264583"
           id="path556"
           sodipodi:nodetypes="ccccc" /></g><path
         style="fill:#f2c706;fill-opacity:1;stroke-width:0.26746"
         d="m 144.14325,108.36424 -14.48773,8.44963 14.31232,8.34731 14.66348,-8.63399 z"
         id="path552-9"
         sodipodi:nodetypes="ccccc" /><path
         style="opacity:1;fill:#e10a1a;fill-opacity:1;stroke-width:0.255042"
         d="m 158.30261,149.95709 0.0956,17.03258 27.91056,-16.77691 v -16.44881 z"
         id="path554"
         sodipodi:nodetypes="ccccc" /><path
         style="opacity:1;fill:#f2c706;fill-opacity:1;stroke-width:0.264583"
         d="m 144.18933,124.98423 -14.5128,-8.32497 v 33.76003 l 14.46046,8.34875"
         id="path555"
         sodipodi:nodetypes="cccc" /><path
         style="fill:#0465a3;fill-opacity:1;stroke-width:0.259869"
         d="m 172.78109,124.67269 13.51804,-8.00403 -28.21165,-16.65054 -13.94969,8.34876"
         id="path555-1"
         sodipodi:nodetypes="cccc" /></g></g></svg>
